<svg width="32" height="32" viewBox="0 0 32 32" fill="none" xmlns="http://www.w3.org/2000/svg">
<rect width="32" height="32" rx="16" fill="#E5E7EB"/>
<path d="M16 11.5C16.8086 11.5 17.5117 12.168 17.5117 13.0117C17.5117 13.8203 16.8086 14.4883 16 14.4883C15.1914 14.4883 14.4883 13.8203 14.4883 13.0117C14.4883 12.168 15.1914 11.5 16 11.5ZM16 18.9883C18.0391 18.9883 20.3594 19.9727 20.5 20.5H11.5C11.6758 19.9727 13.9961 18.9883 16 18.9883ZM16 9.98828C14.3477 9.98828 13.0117 11.3594 13.0117 13.0117C13.0117 14.6641 14.3477 16 16 16C17.6523 16 18.9883 14.6641 18.9883 13.0117C18.9883 11.3594 17.6523 9.98828 16 9.98828ZM16 17.5117C13.9961 17.5117 9.98828 18.4961 9.98828 20.5V22.0117H22.0117V20.5C22.0117 18.4961 18.0039 17.5117 16 17.5117Z" fill="#4B5563"/>
</svg>
