<svg width="72" height="47" viewBox="0 0 72 47" fill="none" xmlns="http://www.w3.org/2000/svg">
<mask id="path-1-inside-1_3_600" fill="white">
<path d="M0 0H72V47H0V0Z"/>
</mask>
<path d="M0 0H72V47H0V0Z" fill="black"/>
<path d="M72 0H71V47H72H73V0H72Z" fill="#4B5563" mask="url(#path-1-inside-1_3_600)"/>
<path d="M43.5399 7H27.8966C22.9832 7 19 11.015 19 15.9678V31.7362C19 36.689 22.9832 40.704 27.8966 40.704H43.5399C48.4533 40.704 52.4365 36.689 52.4365 31.7362V15.9678C52.4365 11.015 48.4533 7 43.5399 7Z" fill="#232323"/>
<path d="M45.1637 26.818L33.2182 33.7698C33.1415 33.8145 33.0643 33.8553 32.9871 33.8923C32.9543 33.9094 32.9203 33.9249 32.8864 33.9392C30.6866 34.9259 28.1222 33.3123 28.1222 30.8035V16.8999C28.1222 14.2636 30.9532 12.6163 33.2182 13.9341L45.1637 20.886C47.4287 22.2044 47.4287 25.4996 45.1637 26.818Z" fill="url(#paint0_linear_3_600)"/>
<path d="M44.4985 25.9692C44.5215 26.6696 44.1432 27.2451 43.8317 27.6017L33.2329 33.7698C33.1048 33.8443 32.9745 33.9095 32.8431 33.9646C33.0326 33.857 33.6726 33.4608 33.9178 32.6683C33.9436 32.5855 34.0679 32.1661 33.9709 31.5966C33.9337 31.3786 33.7859 30.675 33.0671 29.9349C32.035 28.8726 29.971 27.8842 28.1364 26.7413C26.4929 25.7165 25.0333 24.567 24.6659 23.1282C24.4294 22.2011 24.6528 21.1057 25.2506 20.3413C26.2027 19.1245 27.8309 19.1068 28.1216 19.1085H28.1359V20.4495L28.1216 20.4484C27.9749 20.4379 27.4663 20.4197 27.0053 20.7701C26.5104 21.1465 26.3275 21.753 26.3675 22.2171C26.4403 23.0697 27.2801 23.6211 27.5906 23.8247C27.7543 23.9323 27.9366 24.0239 28.1364 24.1006C31.844 25.5355 41.3631 22.008 43.7008 24.3606C44.4706 25.1354 44.4985 25.9681 44.4985 25.9681V25.9692Z" fill="url(#paint1_linear_3_600)"/>
<g opacity="0.4" style="mix-blend-mode:overlay">
<path d="M34.3558 31.6353C34.4527 32.2638 34.3285 32.7274 34.3027 32.8185C34.2589 32.9735 34.2031 33.1142 34.1401 33.2423L33.2335 33.7699C33.1054 33.8444 32.9751 33.9095 32.8437 33.9647C33.0331 33.8571 33.6731 33.4608 33.9184 32.6683C33.9441 32.5856 34.0684 32.1661 33.9715 31.5966C33.9343 31.3786 33.7864 30.675 33.0676 29.935C32.0356 28.8726 29.9716 27.8842 28.137 26.7413C26.4934 25.7165 25.0338 24.567 24.6665 23.1283C24.4612 22.3237 24.6019 21.3921 25.0344 20.6609C24.9292 21.2028 24.9314 21.7685 25.0508 22.2867C25.4182 23.8744 26.8777 25.1431 28.5213 26.2744C30.3554 27.5366 32.4194 28.6276 33.4519 29.8003C34.1708 30.6165 34.3186 31.393 34.3558 31.6342V31.6353Z" fill="white"/>
</g>
<path opacity="0.17" d="M33.9178 32.6682C33.7213 33.304 33.2713 33.6842 33.003 33.8658C33.0747 33.7405 33.1382 33.6003 33.1859 33.4458C33.2116 33.363 33.3359 32.9436 33.239 32.3741C33.2017 32.1561 33.0539 31.4524 32.3351 30.7124C31.4361 29.7869 29.7537 28.9183 28.1227 27.9536V26.7329C28.1276 26.7362 28.132 26.739 28.137 26.7423C29.971 27.8852 32.0356 28.8736 33.0676 29.9359C33.7864 30.6754 33.9343 31.3791 33.9715 31.5976C34.0684 32.1671 33.9436 32.5871 33.9184 32.6693L33.9178 32.6682Z" fill="url(#paint2_linear_3_600)"/>
<defs>
<linearGradient id="paint0_linear_3_600" x1="26.9309" y1="31.0237" x2="41.2733" y2="16.7945" gradientUnits="userSpaceOnUse">
<stop stop-color="#F5F1FA"/>
<stop offset="1" stop-color="white"/>
</linearGradient>
<linearGradient id="paint1_linear_3_600" x1="40.2774" y1="31.1844" x2="25.5784" y2="16.6015" gradientUnits="userSpaceOnUse">
<stop stop-color="#2B9ED6"/>
<stop offset="1" stop-color="#2381AE"/>
</linearGradient>
<linearGradient id="paint2_linear_3_600" x1="28.1227" y1="30.2991" x2="34.0076" y2="30.2991" gradientUnits="userSpaceOnUse">
<stop stop-color="#2B9ED6"/>
<stop offset="1" stop-color="#2381AE"/>
</linearGradient>
</defs>
</svg>
