<svg width="3" height="11" viewBox="0 0 3 11" fill="none" xmlns="http://www.w3.org/2000/svg">
<path d="M1.37094 11C0.991699 11 0.6684 10.8649 0.40104 10.5949C0.13368 10.3248 0 10.0001 0 9.6209C0 9.24166 0.135032 8.91836 0.405096 8.651C0.67516 8.38364 0.999811 8.24996 1.37905 8.24996C1.75829 8.24996 2.08159 8.38499 2.34895 8.65506C2.61631 8.92512 2.74999 9.24977 2.74999 9.62901C2.74999 10.0083 2.61496 10.3316 2.34489 10.5989C2.07483 10.8663 1.75018 11 1.37094 11ZM1.37094 6.87497C0.991699 6.87497 0.6684 6.73994 0.40104 6.46987C0.13368 6.19981 0 5.87516 0 5.49592C0 5.11668 0.135032 4.79338 0.405096 4.52602C0.67516 4.25866 0.999811 4.12498 1.37905 4.12498C1.75829 4.12498 2.08159 4.26001 2.34895 4.53008C2.61631 4.80014 2.74999 5.12479 2.74999 5.50403C2.74999 5.88327 2.61496 6.20657 2.34489 6.47393C2.07483 6.74129 1.75018 6.87497 1.37094 6.87497ZM1.37094 2.74999C0.991699 2.74999 0.6684 2.61496 0.40104 2.34489C0.13368 2.07483 0 1.75018 0 1.37094C0 0.991699 0.135032 0.6684 0.405096 0.40104C0.67516 0.13368 0.999811 0 1.37905 0C1.75829 0 2.08159 0.135032 2.34895 0.405096C2.61631 0.67516 2.74999 0.999812 2.74999 1.37905C2.74999 1.75829 2.61496 2.08159 2.34489 2.34895C2.07483 2.61631 1.75018 2.74999 1.37094 2.74999Z" fill="#9CA3AF"/>
</svg>
