<svg width="29" height="11" viewBox="0 0 29 11" fill="none" xmlns="http://www.w3.org/2000/svg">
<path d="M7.3773 6.49313H6.90758L6.7418 6.32734C7.32204 5.66422 7.6536 4.78005 7.6536 3.84062C7.6536 1.71308 5.94052 0 3.84062 0C1.71308 0 0 1.71308 0 3.84062C0 5.94052 1.71308 7.6536 3.84062 7.6536C4.78005 7.6536 5.66422 7.32204 6.32734 6.7418L6.49313 6.90758V7.3773L9.42194 10.3061L10.3061 9.42194L7.3773 6.49313ZM3.84062 6.49313C2.37621 6.49313 1.1881 5.30502 1.1881 3.84062C1.1881 2.37621 2.37621 1.1881 3.84062 1.1881C5.30502 1.1881 6.49313 2.37621 6.49313 3.84062C6.49313 5.30502 5.30502 6.49313 3.84062 6.49313Z" fill="#9CA3AF"/>
<path d="M22.5069 7.07336H24.8831V5.88526H22.5069V7.07336ZM18.39 0V1.1881H29V0H18.39ZM20.1583 4.11692H27.2317V2.95644H20.1583V4.11692Z" fill="#9CA3AF"/>
</svg>
