<svg width="12" height="10" viewBox="0 0 12 10" fill="none" xmlns="http://www.w3.org/2000/svg">
<path d="M3.57141 9.99995V8.57139H1.07142C0.776782 8.57139 0.524551 8.46642 0.314731 8.25648C0.10491 8.04654 0 7.79417 0 7.49936V1.06721C0 0.7724 0.10491 0.520831 0.314731 0.312498C0.524551 0.104166 0.776782 0 1.07142 0H10.3571C10.6517 0 10.904 0.104969 11.1138 0.314907C11.3236 0.524846 11.4285 0.777219 11.4285 1.07203V7.50418C11.4285 7.79899 11.3236 8.05055 11.1138 8.25889C10.904 8.46722 10.6517 8.57139 10.3571 8.57139H7.8571V9.99995H3.57141ZM1.07142 7.49996H10.3571V1.07142H1.07142V7.49996ZM1.07142 7.49996V1.07142V7.49996Z" fill="#64748B"/>
</svg>
