<svg width="48" height="11" viewBox="0 0 48 11" fill="none" xmlns="http://www.w3.org/2000/svg">
<path d="M7.42465 6.5348H6.95192L6.78507 6.36795C7.36903 5.70057 7.70272 4.81073 7.70272 3.86527C7.70272 1.72408 5.97865 0 3.86527 0C1.72408 0 0 1.72408 0 3.86527C0 5.97865 1.72408 7.70272 3.86527 7.70272C4.81073 7.70272 5.70057 7.36903 6.36795 6.78507L6.5348 6.95192V7.42465L9.48241 10.3723L10.3723 9.48241L7.42465 6.5348ZM3.86527 6.5348C2.39146 6.5348 1.19573 5.33907 1.19573 3.86527C1.19573 2.39146 2.39146 1.19573 3.86527 1.19573C5.33907 1.19573 6.5348 2.39146 6.5348 3.86527C6.5348 5.33907 5.33907 6.5348 3.86527 6.5348Z" fill="#9CA3AF"/>
<path d="M22.6513 7.11876H25.0428V5.92303H22.6513V7.11876ZM18.508 0V1.19573H29.1861V0H18.508ZM20.2877 4.14334H27.4064V2.97542H20.2877V4.14334Z" fill="#9CA3AF"/>
<path d="M46.8043 0H38.5176C37.8502 0 37.3219 0.528346 37.3219 1.19573V9.48241C37.3219 10.1498 37.8502 10.6781 38.5176 10.6781H46.8043C47.4717 10.6781 48 10.1498 48 9.48241V1.19573C48 0.528346 47.4717 0 46.8043 0ZM46.8043 9.48241H38.5176V1.19573H46.8043V9.48241ZM46.2203 3.55938L45.3861 2.72515L41.4652 6.61822L39.9358 5.0888L39.1015 5.95084L41.4652 8.31449L46.2203 3.55938Z" fill="#9CA3AF"/>
</svg>
