<svg width="319" height="29" viewBox="0 0 319 29" fill="none" xmlns="http://www.w3.org/2000/svg">
<mask id="path-1-inside-1_7_2935" fill="white">
<path d="M0 0H319V28.1836H0V0Z"/>
</mask>
<path d="M0 0V1H319V0V-1H0V0Z" fill="#E5E7EB" mask="url(#path-1-inside-1_7_2935)"/>
<path d="M159.5 11.0781C161.715 11.0781 163.684 12.3086 164.641 14.2773C164.312 14.9883 163.82 15.6172 163.246 16.1094L164.066 16.9297C164.859 16.2188 165.516 15.3164 165.926 14.2773C164.914 11.7344 162.426 9.90234 159.5 9.90234C158.762 9.90234 158.051 10.0391 157.367 10.2305L158.352 11.2148C158.707 11.1328 159.09 11.0781 159.5 11.0781ZM158.871 11.7344L160.074 12.9375C160.402 13.1016 160.676 13.375 160.84 13.7031L162.043 14.9062C162.098 14.7148 162.125 14.4961 162.125 14.2773C162.125 12.8281 160.949 11.6523 159.5 11.6523C159.281 11.6523 159.09 11.6797 158.871 11.7344ZM153.676 9.84766L155.234 11.4062C154.277 12.1445 153.539 13.1289 153.074 14.2773C154.086 16.8477 156.574 18.6523 159.5 18.6523C160.375 18.6523 161.25 18.4883 162.016 18.1875L164.012 20.1836L164.832 19.3633L154.496 9L153.676 9.84766ZM158.051 14.2227L159.582 15.7266C159.555 15.7266 159.527 15.7539 159.5 15.7539C158.707 15.7539 158.051 15.0977 158.051 14.2773C158.051 14.25 158.051 14.25 158.051 14.2227ZM156.055 12.2266L157.094 13.2383C156.957 13.5664 156.875 13.9219 156.875 14.2773C156.875 15.7266 158.051 16.9023 159.5 16.9023C159.855 16.9023 160.211 16.8477 160.539 16.7109L161.113 17.2852C160.594 17.4219 160.047 17.5039 159.5 17.5039C157.285 17.5039 155.316 16.2461 154.359 14.2773C154.77 13.457 155.371 12.7734 156.055 12.2266Z" fill="#9CA3AF"/>
</svg>
