<svg width="13" height="13" viewBox="0 0 13 13" fill="none" xmlns="http://www.w3.org/2000/svg">
<path d="M12.0134 13L7.38988 8.37649C7.00298 8.66022 6.57872 8.88269 6.11711 9.0439C5.65551 9.20511 5.16431 9.28571 4.64353 9.28571C3.3534 9.28571 2.25694 8.83433 1.35417 7.93155C0.451389 7.02877 0 5.93254 0 4.64286C0 3.35317 0.451389 2.25694 1.35417 1.35417C2.25694 0.451389 3.35317 0 4.64286 0C5.93254 0 7.02877 0.451389 7.93155 1.35417C8.83433 2.25694 9.28571 3.3534 9.28571 4.64353C9.28571 5.16431 9.20511 5.65551 9.0439 6.11711C8.88269 6.57872 8.66022 7.00298 8.37649 7.38988L13 12.0134L12.0134 13ZM4.64286 7.89286C5.54563 7.89286 6.313 7.57688 6.94494 6.94494C7.57688 6.313 7.89286 5.54563 7.89286 4.64286C7.89286 3.74008 7.57688 2.97272 6.94494 2.34077C6.313 1.70883 5.54563 1.39286 4.64286 1.39286C3.74008 1.39286 2.97272 1.70883 2.34077 2.34077C1.70883 2.97272 1.39286 3.74008 1.39286 4.64286C1.39286 5.54563 1.70883 6.313 2.34077 6.94494C2.97272 7.57688 3.74008 7.89286 4.64286 7.89286Z" fill="#9CA3AF"/>
</svg>
