<svg width="22" height="12" viewBox="0 0 22 12" fill="none" xmlns="http://www.w3.org/2000/svg">
<path d="M1.17578 2.32422H0V5.25V10.5C0 11.1289 0.519531 11.6484 1.17578 11.6484H11.6758V10.5H1.17578V2.32422ZM4.07422 7.57422H12.25L10.1992 4.94922L8.75 6.69922L6.69922 4.07422L4.07422 7.57422ZM12.8242 1.14844H8.17578L7 0H3.5C2.87109 0 2.35156 0.519531 2.35156 1.14844L2.32422 8.14844C2.32422 8.80469 2.87109 9.32422 3.5 9.32422H12.8242C13.4805 9.32422 14 8.80469 14 8.14844V2.32422C14 1.69531 13.4805 1.14844 12.8242 1.14844ZM12.8242 8.14844H3.5V1.14844H6.50781L7.32812 1.96875L7.68359 2.32422H12.8242V8.14844Z" fill="#6B7280"/>
</svg>
