<svg width="48" height="32" viewBox="0 0 48 32" fill="none" xmlns="http://www.w3.org/2000/svg">
<mask id="path-1-inside-1_3_836" fill="white">
<path d="M0 0H48V32H0V0Z"/>
</mask>
<path d="M48 0H47V32H48H49V0H48Z" fill="#F3F4F6" mask="url(#path-1-inside-1_3_836)"/>
<path d="M21.4023 8V16.7305H20.3066V9.03125H20.248L18.1387 10.5957V9.40039L20.0371 8H21.4023ZM25.9492 16.8477C25.4375 16.8477 24.9785 16.7471 24.5723 16.5459C24.166 16.3447 23.8418 16.0693 23.5996 15.7197C23.3574 15.3701 23.2266 14.9727 23.207 14.5273H24.2852C24.3086 14.7852 24.3965 15.0156 24.5488 15.2188C24.7012 15.4219 24.8994 15.5811 25.1436 15.6963C25.3877 15.8115 25.6562 15.8691 25.9492 15.8691C26.3008 15.8691 26.6143 15.7871 26.8896 15.623C27.165 15.459 27.3809 15.2324 27.5371 14.9434C27.6934 14.6543 27.7715 14.3262 27.7715 13.959C27.7715 13.584 27.6895 13.248 27.5254 12.9512C27.3613 12.6543 27.1377 12.4209 26.8545 12.251C26.5713 12.0811 26.2461 11.9961 25.8789 11.9961C25.6094 11.9961 25.3359 12.0391 25.0586 12.125C24.7812 12.2109 24.5566 12.3203 24.3848 12.4531L23.3418 12.3242L23.8574 8H28.4512V8.97852H24.7949L24.4961 11.5273H24.543C24.7227 11.3789 24.9492 11.2568 25.2227 11.1611C25.4961 11.0654 25.7832 11.0176 26.084 11.0176C26.4824 11.0176 26.8506 11.0898 27.1885 11.2344C27.5264 11.3789 27.8203 11.583 28.0703 11.8467C28.3203 12.1104 28.5146 12.4199 28.6533 12.7754C28.792 13.1309 28.8613 13.5195 28.8613 13.9414C28.8613 14.5 28.7354 14.998 28.4834 15.4355C28.2314 15.873 27.8867 16.2178 27.4492 16.4697C27.0117 16.7217 26.5117 16.8477 25.9492 16.8477Z" fill="#6B7280"/>
</svg>
