<svg width="38" height="38" viewBox="0 0 38 38" fill="none" xmlns="http://www.w3.org/2000/svg">
<path d="M6.08008 17.1059L5.24408 17.7329C4.74039 18.1106 4.02584 18.0086 3.64807 17.5049C3.27032 17.0012 3.37239 16.2866 3.87607 15.9089L16.568 6.38993C17.784 5.47793 19.456 5.47793 20.672 6.38993L33.364 15.9089C33.8677 16.2866 33.9699 17.0012 33.592 17.5049C33.2143 18.0086 32.4997 18.1106 31.996 17.7329L31.16 17.1059V28.8809C31.16 30.7698 29.6289 32.3009 27.74 32.3009H9.50007C7.61126 32.3009 6.08008 30.7698 6.08008 28.8809V17.1059ZM19.76 15.2893C19.76 14.6597 19.2497 14.1493 18.62 14.1493C17.9904 14.1493 17.48 14.6597 17.48 15.2893V15.6484C16.3251 16.0703 15.5005 17.179 15.5005 18.4802C15.5005 19.7364 16.2798 20.8609 17.4561 21.302L18.9834 21.8748C19.2698 21.9822 19.4597 22.256 19.4597 22.562C19.4597 22.9672 19.131 23.2958 18.7258 23.2958H18.1253C17.9349 23.2958 17.7805 23.1414 17.7805 22.9511C17.7805 22.3215 17.2701 21.8111 16.6405 21.8111C16.0109 21.8111 15.5005 22.3215 15.5005 22.9511C15.5005 24.178 16.3424 25.2084 17.48 25.4959V25.7526C17.48 26.3822 17.9904 26.8926 18.62 26.8926C19.2497 26.8926 19.76 26.3822 19.76 25.7526V25.3936C20.9151 24.9716 21.7397 23.8631 21.7397 22.562C21.7397 21.3057 20.9604 20.1812 19.784 19.7401L18.2567 19.1672C17.9704 19.0597 17.7805 18.786 17.7805 18.4802C17.7805 18.0748 18.1091 17.7463 18.5144 17.7463H19.1149C19.3052 17.7463 19.4597 17.9006 19.4597 18.091C19.4597 18.7206 19.9701 19.231 20.5997 19.231C21.2292 19.231 21.7397 18.7206 21.7397 18.091C21.7397 16.8641 20.8977 15.8337 19.76 15.5461V15.2893Z" fill="#1A91E2"/>
</svg>
