<svg width="38" height="38" viewBox="0 0 38 38" fill="none" xmlns="http://www.w3.org/2000/svg">
<path d="M8.85489 7.45876C9.37595 6.06763 10.7055 5.14584 12.1911 5.14584H25.8109C27.2964 5.14584 28.6259 6.06763 29.147 7.45876L30.6529 11.4792H33.6458C34.3017 11.4792 34.8333 12.0108 34.8333 12.6667C34.8333 13.3225 34.3017 13.8542 33.6458 13.8542H31.5424L31.6113 14.0378C33.0237 14.5108 34.0417 15.8449 34.0417 17.4167V28.5C34.0417 29.8116 32.9783 30.875 31.6667 30.875C30.355 30.875 29.2917 29.8116 29.2917 28.5V26.9167H8.70834V28.5C8.70834 29.8116 7.64502 30.875 6.33334 30.875C5.02166 30.875 3.95834 29.8116 3.95834 28.5V17.4167C3.95834 15.8441 4.97726 14.5095 6.39092 14.0371L6.45943 13.8542H4.35417C3.69834 13.8542 3.16667 13.3225 3.16667 12.6667C3.16667 12.0108 3.69834 11.4792 4.35417 11.4792H7.34901L8.85489 7.45876ZM11.079 8.29182L8.99557 13.8542H29.0064L26.9228 8.29182C26.7492 7.8281 26.306 7.52084 25.8109 7.52084H12.1911C11.6959 7.52084 11.2527 7.8281 11.079 8.29182ZM23.75 19.7917C23.0942 19.7917 22.5625 20.3234 22.5625 20.9792V24.5417H24.9375V20.9792C24.9375 20.3234 24.4058 19.7917 23.75 19.7917ZM19 18.6042C18.3442 18.6042 17.8125 19.1359 17.8125 19.7917V24.5417H20.1875V19.7917C20.1875 19.1359 19.6558 18.6042 19 18.6042ZM14.25 19.7917C13.5942 19.7917 13.0625 20.3234 13.0625 20.9792V24.5417H15.4375V20.9792C15.4375 20.3234 14.9058 19.7917 14.25 19.7917Z" fill="#92A0B2"/>
</svg>
