<svg width="38" height="38" viewBox="0 0 38 38" fill="none" xmlns="http://www.w3.org/2000/svg">
<path d="M13.0793 19.1379L6.32057 25.8966C4.98498 27.2322 4.98498 29.3976 6.32057 30.7332L6.98823 31.4008C8.32383 32.7364 10.4892 32.7364 11.8248 31.4008L16.6413 26.5844L15.048 24.9911C13.8753 23.8184 13.7323 22.0061 14.6188 20.6773L13.0793 19.1379Z" fill="#92A0B2"/>
<path d="M28.3738 20.8596C29.0296 20.4902 29.6464 20.0263 30.2048 19.468C32.7119 16.9609 33.3135 13.273 32.0162 10.1997C31.8688 9.85013 31.557 9.5969 31.1846 9.52414C30.8124 9.45136 30.4281 9.5686 30.1598 9.83686L26.3141 13.6827C25.8689 14.1279 25.1472 14.1279 24.702 13.6827L24.0342 13.015C23.589 12.5698 23.589 11.848 24.0342 11.4028L27.88 7.55709C28.1483 7.28881 28.2655 6.90466 28.1926 6.53231C28.1198 6.15995 27.8666 5.84821 27.5172 5.70068C24.4439 4.40371 20.7562 5.00536 18.2491 7.51236C16.9145 8.84704 16.1199 10.5164 15.8642 12.2495L19.454 15.8391C20.7836 14.946 22.6013 15.0871 23.7767 16.2625L28.3738 20.8596Z" fill="#92A0B2"/>
<path d="M6.08474 9.61766C5.83802 9.17282 5.91589 8.61834 6.27558 8.25864L7.03515 7.49905C7.39485 7.13936 7.94933 7.06151 8.39419 7.30822L10.0997 8.25411C10.3413 8.38813 10.526 8.60532 10.6195 8.86532L11.046 10.0514C11.1215 10.2614 11.1323 10.484 11.0841 10.6931L19.3353 18.9444C19.3581 18.967 19.3797 18.9906 19.4002 19.0148L20.5466 17.8682C20.9918 17.423 21.7137 17.423 22.1589 17.8682L30.1601 25.8697C31.4958 27.2051 31.4958 29.3707 30.1601 30.7061L29.4926 31.3739C28.1569 32.7095 25.9914 32.7095 24.6559 31.3739L16.6545 23.3724C16.2093 22.9272 16.2093 22.2055 16.6545 21.7603L17.7936 20.6212C17.7694 20.6009 17.746 20.5793 17.7232 20.5565L9.47334 12.3067C9.26319 12.3559 9.03921 12.3454 8.82789 12.2694L7.64185 11.843C7.38185 11.7495 7.16464 11.5648 7.03064 11.3231L6.08474 9.61766Z" fill="#92A0B2"/>
</svg>
